<svg xmlns="http://www.w3.org/2000/svg" xmlns:xlink="http://www.w3.org/1999/xlink" viewBox="0 0 1570 344"><defs><style>.cls-1{fill:url(#linear-gradient);}.cls-2{fill:url(#linear-gradient-2);}.cls-3{fill:url(#linear-gradient-3);}</style><linearGradient id="linear-gradient" x1="146.95" y1="120.18" x2="66.72" y2="178.61" gradientUnits="userSpaceOnUse"><stop offset="0" stop-color="#da1c5c"/><stop offset="1" stop-color="#9e1f63"/></linearGradient><linearGradient id="linear-gradient-2" x1="-43.1" y1="193.89" x2="129.62" y2="277.52" gradientUnits="userSpaceOnUse"><stop offset="0" stop-color="#ee4168"/><stop offset="1" stop-color="#9e1f63"/></linearGradient><linearGradient id="linear-gradient-3" x1="221.65" y1="93.02" x2="168.22" y2="330.73" xlink:href="#linear-gradient"/></defs><title>Artboard 2</title><g id="Layer_3" data-name="Layer 3"><path d="M395.61,256.89a7.94,7.94,0,0,1-6,2.46,8.4,8.4,0,0,1-8.35-8.35V100.57a8.4,8.4,0,0,1,8.35-8.35,8.05,8.05,0,0,1,8.35,8.35v72.76l78.11-78.11a9.2,9.2,0,0,1,6.63-3,7.17,7.17,0,0,1,7.7,7.49,9.79,9.79,0,0,1-2.78,6.85L429,165.2l59.27,80.89a10,10,0,0,1,1.71,5.14,8.16,8.16,0,0,1-2.25,5.67,7.11,7.11,0,0,1-5.46,2.46,7.84,7.84,0,0,1-7.06-3.64L417,177l-19,19.26V251A8.22,8.22,0,0,1,395.61,256.89Z"/><path d="M627.78,245.76a8,8,0,0,1,0,11.34,8.33,8.33,0,0,1-6,2.25h-92a8.4,8.4,0,0,1-8.35-8.35V100.57a8.4,8.4,0,0,1,8.35-8.35,8.05,8.05,0,0,1,8.35,8.35V243.51h83.67A8.33,8.33,0,0,1,627.78,245.76Z"/><path d="M659.34,94.58a8.22,8.22,0,0,1,5.88-2.35,8.05,8.05,0,0,1,8.35,8.35V251a8.22,8.22,0,0,1-2.35,5.88,7.94,7.94,0,0,1-6,2.46,8.4,8.4,0,0,1-8.35-8.35V100.57A7.93,7.93,0,0,1,659.34,94.58Z"/><path d="M724.08,256.89a7.94,7.94,0,0,1-6,2.46,8.4,8.4,0,0,1-8.35-8.35V100.57a8.4,8.4,0,0,1,8.35-8.35,8.05,8.05,0,0,1,8.35,8.35v72.76l78.11-78.11a9.2,9.2,0,0,1,6.63-3,7.17,7.17,0,0,1,7.7,7.49,9.79,9.79,0,0,1-2.78,6.85L757.46,165.2l59.27,80.89a10,10,0,0,1,1.71,5.14,8.16,8.16,0,0,1-2.25,5.67,7.11,7.11,0,0,1-5.46,2.46,7.84,7.84,0,0,1-7.06-3.64L745.48,177l-19,19.26V251A8.22,8.22,0,0,1,724.08,256.89Z"/><path d="M917.95,97.58A56.12,56.12,0,0,1,938.06,117a9.41,9.41,0,0,1,1.5,5.14,7.21,7.21,0,0,1-3.85,6.42,8.49,8.49,0,0,1-3.85.86,8.59,8.59,0,0,1-4.39-1.18,9.19,9.19,0,0,1-3.32-3.32q-12-18.83-36.16-19-17.33,0-27.39,7.28T850.54,134q0,25,40.44,30.39,26.53,3.85,39.59,16.26t13.05,32.74q0,15-7.28,25.89a46,46,0,0,1-19.9,16.58,68.24,68.24,0,0,1-28.25,5.67q-20.33,0-36.06-8.67t-22.58-23.43a6.77,6.77,0,0,1-.86-3.42,6.52,6.52,0,0,1,2.25-5,8.76,8.76,0,0,1,6.1-2,9,9,0,0,1,4.82,1.39,8.27,8.27,0,0,1,3.32,4q4.92,9.63,16.37,15.51t26.64,5.88q17.54,0,28.25-8.45t10.7-23.65a29.68,29.68,0,0,0-10-22.68q-10-9.2-29.85-11.77-24.82-3-39.05-15.51t-14.23-30.71a37.83,37.83,0,0,1,7-22.58,44.39,44.39,0,0,1,19.26-15,70.65,70.65,0,0,1,27.93-5.24Q905.11,90.09,917.95,97.58Zm-4.71-56.06a6,6,0,0,1,6.42,6.21q0,4.28-4.07,7.06l-25,16.69a7.28,7.28,0,0,1-4.28,1.07,6.29,6.29,0,0,1-4.07-1.07L857,54.78q-4.07-2.78-4.07-7.06a5.89,5.89,0,0,1,1.82-4.49,6.74,6.74,0,0,1,4.81-1.71,12.76,12.76,0,0,1,6.85,2.35l19.9,13.48,19.9-13.27A12.29,12.29,0,0,1,913.24,41.51Z"/><path d="M992.84,256.89a7.94,7.94,0,0,1-6,2.46A8.4,8.4,0,0,1,978.5,251V100.57a8.4,8.4,0,0,1,8.35-8.35,8.05,8.05,0,0,1,8.35,8.35v72.76l78.11-78.11a9.2,9.2,0,0,1,6.63-3,7.17,7.17,0,0,1,7.7,7.49,9.79,9.79,0,0,1-2.78,6.85l-58.63,58.63,59.27,80.89a10,10,0,0,1,1.71,5.14,8.16,8.16,0,0,1-2.25,5.67,7.11,7.11,0,0,1-5.46,2.46,7.84,7.84,0,0,1-7.06-3.64L1014.24,177l-19,19.26V251A8.22,8.22,0,0,1,992.84,256.89Z"/><path d="M1231.12,101.21a79.86,79.86,0,0,1,30.6,30.6q11,19.47,11,43.87t-11,44a79.61,79.61,0,0,1-30.6,30.71q-19.58,11.13-43.76,11.13-24.4,0-43.87-11.13A79.81,79.81,0,0,1,1113,219.66q-11-19.58-11-44t11-43.87a80.06,80.06,0,0,1,30.49-30.6q19.47-11.12,43.87-11.13Q1211.54,90.09,1231.12,101.21Zm-79.17,13.91a66.42,66.42,0,0,0-24.72,25.14,70.87,70.87,0,0,0-9,35.42,71.27,71.27,0,0,0,9,35.63,66.38,66.38,0,0,0,24.72,25.14,72.34,72.34,0,0,0,70.62,0,66.37,66.37,0,0,0,24.71-25.14,71.26,71.26,0,0,0,9-35.63,70.86,70.86,0,0,0-9-35.42,66.41,66.41,0,0,0-24.71-25.14,72.34,72.34,0,0,0-70.62,0Z"/><path d="M1413.54,245.76a8,8,0,0,1,0,11.34,8.33,8.33,0,0,1-6,2.25h-92a8.4,8.4,0,0,1-8.35-8.35V100.57a8.4,8.4,0,0,1,8.35-8.35,8.05,8.05,0,0,1,8.35,8.35V243.51h83.67A8.33,8.33,0,0,1,1413.54,245.76Z"/><path d="M1568.89,251a8.47,8.47,0,0,1-16.26,3.21l-14.34-34.67h-82.81l-14.34,34.67q-1.71,5.14-7.7,5.14a7.59,7.59,0,0,1-5.88-2.46,8.42,8.42,0,0,1-2.25-5.88,9.22,9.22,0,0,1,.64-3.64L1488.86,98q2.35-5.78,8.13-5.78t7.92,5.78L1568,247.58A6.81,6.81,0,0,1,1568.89,251Zm-36.38-45.79L1497,119.4l-35.52,85.81Z"/><path class="cls-1" d="M285.06,125.3,125.95,33.44,82.13,8.13a53.35,53.35,0,0,0-80,46.21V288.66a52.81,52.81,0,0,0,26.68,46.21,52.83,52.83,0,0,0,53.34,0l35.07-20.25,48.29-27.88,119.57-69a53.35,53.35,0,0,0,0-92.41Zm-21.37,55.39L135.8,254.52l-17,9.84-58,33.49a10.61,10.61,0,0,1-15.91-9.19V54.34a10.42,10.42,0,0,1,5.3-9.19,11,11,0,0,1,5.36-1.46,10.35,10.35,0,0,1,5.24,1.46l63.69,36.77,139.24,80.4a10.61,10.61,0,0,1,0,18.37Z"/><path class="cls-2" d="M165.49,286.74,82.13,334.87a53.35,53.35,0,0,1-80-46.21V109.44l42.74,46.38V288.66a10.61,10.61,0,0,0,15.91,9.19l75-43.33Z"/><path class="cls-3" d="M311.73,171.5a52.81,52.81,0,0,1-26.68,46.21l-119.57,69L117.2,314.62l1.56-50.26,17-9.84,127.89-73.83a10.61,10.61,0,0,0,0-18.37L124.44,81.92l1.5-48.48L285.06,125.3A52.81,52.81,0,0,1,311.73,171.5Z"/></g></svg>