<?xml version="1.0" standalone="no"?>
<!DOCTYPE svg PUBLIC "-//W3C//DTD SVG 20010904//EN"
 "http://www.w3.org/TR/2001/REC-SVG-20010904/DTD/svg10.dtd">
<svg version="1.0" xmlns="http://www.w3.org/2000/svg"
 width="700.000000pt" height="700.000000pt" viewBox="0 0 700.000000 700.000000"
 preserveAspectRatio="xMidYMid meet">
<metadata>
Created by potrace 1.11, written by Peter Selinger 2001-2013
</metadata>
<g transform="translate(0.000000,700.000000) scale(0.100000,-0.100000)"
fill="#000000" stroke="none">
<path d="M1468 6916 c-1 -2 -41 -6 -88 -9 -103 -7 -150 -17 -265 -58 -370
-130 -637 -449 -698 -832 -12 -71 -14 -509 -15 -2514 -1 -1538 2 -2452 9
-2493 44 -296 194 -546 430 -718 182 -132 399 -204 624 -205 115 0 163 6 271
33 156 40 72 -6 1844 1018 404 234 805 465 890 515 85 49 169 98 186 107 17
10 123 71 235 136 112 64 278 160 369 212 91 52 170 98 175 102 6 4 30 19 55
32 222 123 639 371 697 415 388 294 519 832 315 1293 -67 152 -226 339 -367
432 -56 36 -345 206 -565 330 -19 11 -150 87 -290 168 -140 81 -271 156 -290
167 -19 11 -384 222 -810 468 -426 246 -791 457 -810 468 -19 10 -134 77 -255
146 -204 118 -328 189 -415 238 -64 37 -494 285 -601 348 -214 125 -362 179
-524 191 -44 3 -85 7 -92 9 -6 2 -13 2 -15 1z m74 -875 c13 -5 85 -45 162 -90
76 -44 140 -81 143 -81 3 0 17 -8 31 -18 15 -11 52 -32 82 -49 53 -29 489
-281 635 -366 39 -23 79 -47 90 -53 11 -5 148 -85 305 -176 312 -182 1115
-645 2220 -1282 296 -171 456 -268 477 -292 59 -67 66 -174 15 -249 -27 -39
-49 -54 -292 -195 -67 -40 -1652 -954 -2305 -1330 -401 -232 -451 -261 -1115
-644 -491 -285 -499 -288 -594 -252 -54 21 -111 81 -125 133 -8 26 -11 770
-11 2414 l0 2375 25 50 c48 97 160 142 257 105z"/>
</g>
</svg>
